<svg xmlns="http://www.w3.org/2000/svg" viewBox="0 0 32 32" fill="none">
  <defs>
    <linearGradient id="classroom-bg" x1="0" y1="0" x2="32" y2="32" gradientUnits="userSpaceOnUse">
      <stop stop-color="#F2F7FE"/>
      <stop offset="1" stop-color="#FFFFFF"/>
    </linearGradient>
  </defs>
  <rect width="32" height="32" rx="8" fill="url(#classroom-bg)"/>
  <rect x="0.5" y="0.5" width="31" height="31" rx="7.5" stroke="#0A3D9C" stroke-opacity="0.1"/>
  <path d="M16 12.7c-1.9-1.7-4.4-2.4-7.5-2.2v12.6c3.1-.2 5.6.5 7.5 2.2 1.9-1.7 4.4-2.4 7.5-2.2V10.5c-3.1-.2-5.6.5-7.5 2.2Z" stroke="#0A3D9C" stroke-width="1.6" stroke-linejoin="round"/>
  <path d="M16 12.7v12.6" stroke="#0A3D9C" stroke-width="1.4" opacity="0.45"/>
  <path d="M16 4.8c.25 1.55 1.05 2.35 2.6 2.6-1.55.25-2.35 1.05-2.6 2.6-.25-1.55-1.05-2.35-2.6-2.6 1.55-.25 2.35-1.05 2.6-2.6Z" stroke="#12B5F5" stroke-width="1.3" stroke-linejoin="round"/>
</svg>
