<svg xmlns="http://www.w3.org/2000/svg" viewBox="0 0 1024 1024" role="img" aria-label="AI 研究小组">
 <g>
  <g/>
  <g>
   <ellipse cx="501.546157" cy="529.224932" fill="#F9FAFC" rx="352.44853" ry="289.48542"/>
   <ellipse cx="515.296737" cy="316.453112" fill="#F9FAFC" rx="195.402666" ry="146.190143"/>
   <path d="m347.378235,463.649658c2.042755,0.008453 2.042755,0.008453 4.126801,0.017029c15.504669,0.22821 30.801636,2.070068 46.174896,3.971436c31.942749,3.930695 63.728149,6.996094 95.905396,8.031982c2.043091,0.072083 2.043091,0.072083 4.127441,0.145599c8.290649,0.256714 16.533142,0.16037 24.821106,-0.145599c1.510315,-0.051788 3.020752,-0.103546 4.576904,-0.156891c20.925232,-0.80484 41.680969,-2.48645 62.479675,-4.863892c1.698059,-0.193726 3.396057,-0.387451 5.145508,-0.587067c8.480469,-0.975464 16.956055,-1.981659 25.427856,-3.029358c15.531067,-1.874634 30.879944,-3.31485 46.536072,-3.349304c1.334595,-0.003967 2.669189,-0.007965 4.044189,-0.012054c40.698669,0.458618 72.320313,24.699768 85.187439,62.568085c0.356201,1.033813 0.712219,2.067749 1.079163,3.132996c5.362183,16.486023 6.300354,32.905029 6.252991,50.113647c-0.004578,3.43927 0.029419,6.876648 0.066101,10.315735c0.252747,61.699768 -27.531494,109.589844 -87.459106,129.488159c-4.295288,1.358337 -8.608948,2.638672 -12.93634,3.889954c-1.720337,0.514954 -3.440552,1.029968 -5.213013,1.560547c-71.432861,19.609009 -150.215576,19.351746 -223.480499,12.913757c-2.276672,-0.177246 -4.553345,-0.354431 -6.830048,-0.531494c-41.635834,-3.834839 -85.321381,-11.888428 -121.990967,-32.759338c-1.466522,-0.8172 -2.933075,-1.63446 -4.444061,-2.47644c-29.874634,-17.725098 -45.680756,-49.305115 -50.558167,-82.921753c-0.264954,-1.643799 -0.529877,-3.287537 -0.802887,-4.981201c-5.111084,-42.449768 -1.406342,-86.37738 25.409149,-120.944977c0.875092,-1.231415 1.750122,-2.462891 2.651733,-3.731628c16.617493,-18.563721 45.689362,-25.821533 69.702667,-25.657928z" fill="#0A1744"/>
   <path d="m131.728546,520.540344c0.326004,6.689575 0.560211,13.375977 0.715576,20.071716c0.064865,2.269043 0.153275,4.537537 0.267151,6.804626c0.853348,17.445923 -2.472107,26.57605 -14.009583,39.705322c-3.531876,5.257263 -6.701584,10.705139 -9.860596,16.193054c-0.856644,1.486206 -1.713287,2.972534 -2.595901,4.503784c-26.098358,45.931885 -44.136276,94.133484 -44.355011,147.476074c-0.029861,1.792175 -0.0597,3.58429 -0.090469,5.430664c-0.229294,54.712341 33.585785,98.811768 85.036346,115.881836c2.187134,0.543152 4.389465,1.029297 6.603882,1.447449c1.126968,0.231323 2.253922,0.462708 3.415024,0.70105c9.633606,1.099182 12.212891,-3.048523 17.120361,-10.262024c12.731812,-16.820251 37.095169,-18.169312 56.291336,-14.101074c10.103271,3.701355 19.946533,10.328613 25.940613,19.319763c13.035278,-1.710266 25.644043,-6.793579 38.085419,-10.946167c1.16275,-0.386902 2.325439,-0.773743 3.523376,-1.172363c16.916718,-5.653015 33.346191,-11.7948 49.376984,-19.663391c3.225433,-1.571472 6.474426,-3.081421 9.734802,-4.579041c10.3797,-4.783203 20.536682,-9.693726 30.282898,-15.701233c7.953491,-3.291138 16.909729,-1.19635 25.177307,0.090515c2.122375,0.326477 4.244751,0.653015 6.431427,0.989441c2.215454,0.348511 4.430908,0.697205 6.646301,1.045959c2.254883,0.349304 4.509918,0.697998 6.765015,1.046021c5.49585,0.850769 10.99054,1.708496 16.484283,2.572571c-3.875641,4.145691 -7.517883,7.056885 -12.506683,9.747498c-1.298462,0.705444 -2.596985,1.410767 -3.934845,2.137573c-2.071198,1.102539 -2.071198,1.102539 -4.184296,2.227356c-1.434021,0.771423 -2.868011,1.542847 -4.34549,2.337585c-10.788544,5.776184 -21.638367,11.398987 -32.649445,16.74115c-3.56842,1.740906 -7.120331,3.513733 -10.674072,5.284363c-83.341797,41.132996 -83.341797,41.132996 -115.528412,41.132996c-0.059723,1.791138 -0.119415,3.582336 -0.180939,5.427795c-2.789734,24.267029 -20.647522,39.583618 -43.241882,45.232117c-26.636185,2.241028 -47.902069,-6.885254 -59.344513,-31.843384c-1.266495,-5.970642 -1.266495,-5.970642 -1.447433,-10.132019c-1.684845,-0.187439 -1.684845,-0.187439 -3.403717,-0.378784c-27.31015,-3.552307 -53.413269,-15.584839 -74.757347,-32.911987c-1.125099,-0.904907 -2.250183,-1.809937 -3.409363,-2.742249c-64.949432,-54.888306 -62.815815,-149.51178 -34.252007,-222.336914c10.447311,-25.587952 22.937416,-49.720276 37.661369,-73.090881c0.614548,-0.98468 1.229111,-1.96936 1.862297,-2.983887c38.15387,-60.702881 38.15387,-60.702881 47.350235,-60.702881z" fill="#656DE4"/>
   <path d="m878.600952,519.092896c72.173218,70.593689 125.670898,214.032227 79.695435,309.590393c-14.168091,28.199158 -36.719177,53.937195 -65.221191,68.18811c-1.910034,3.841003 -1.910034,3.841003 -3.347168,8.322693c-6.793091,17.293457 -20.663513,23.034119 -38.752563,22.599121c-7.481262,-0.932678 -13.314941,-3.833252 -18.6922,-9.210388c-4.585388,-0.202209 -9.044739,-0.229065 -13.62616,-0.130066c-2.84668,0.033752 -5.693298,0.066467 -8.540039,0.098267c-1.492737,0.020996 -2.985474,0.042114 -4.523438,0.063843c-37.596619,0.476074 -71.781494,-2.193909 -107.921082,-13.058899c-2.104004,-0.6297 -2.104004,-0.6297 -4.250366,-1.272156c-30.075317,-9.162415 -58.809326,-21.685425 -86.686646,-36.182129c-3.650696,-1.887329 -7.319397,-3.737427 -10.987854,-5.589722c-18.314331,-9.320251 -35.7854,-19.478699 -52.949829,-30.77478c3.11969,-6.23938 15.324036,-4.632324 21.711426,-4.975525c9.526184,-0.585999 18.879333,-1.709229 28.315247,-3.126709c10.528442,-1.2323 16.080017,-0.699829 25.239563,4.935974c22.839722,13.537598 47.170349,24.37616 71.98053,33.762939c3.03656,1.152161 6.059509,2.339966 9.080994,3.530945c13.13092,4.955017 26.446472,8.500793 40.070007,11.828186c1.736084,0.425537 3.472107,0.851013 5.260742,1.28949c19.318054,4.571167 38.140686,6.72937 57.973755,7.214172c2.865845,0.083923 2.865845,0.083923 5.789673,0.169617c4.643616,0.134583 9.287354,0.25885 13.931519,0.373108c0.293823,-1.992676 0.293823,-1.992676 0.593628,-4.025635c2.649841,-14.459595 14.235535,-22.873291 28.354919,-24.922852c9.579712,-0.628235 18.939575,0.123047 26.05365,7.237122c10.131287,-2.532837 17.595825,-9.819458 24.606262,-17.369141c0.753784,-0.763123 1.507629,-1.526245 2.284241,-2.3125c13.195679,-13.998108 21.286743,-31.50293 26.664307,-49.794861c0.462769,-1.526245 0.925415,-3.05249 1.402222,-4.625c17.683533,-70.570618 -16.403015,-153.210571 -54.957031,-211.041687c-0.148987,-4.624573 -0.130554,-9.107239 0.033936,-13.72229c0.036255,-1.34314 0.072449,-2.68634 0.109741,-4.070251c0.119019,-4.292175 0.25885,-8.583313 0.399109,-12.874817c0.08429,-2.908997 0.167236,-5.817932 0.248779,-8.726929c0.202942,-7.133057 0.4245,-14.265442 0.655884,-21.397644z" fill="#5883E4"/>
   <path d="m356.079742,113.813309c2.943756,0.918228 5.887604,1.836052 8.831573,2.753502c34.196075,10.844574 70.719513,24.291451 101.172913,43.564171c-3.585815,3.585785 -5.745239,3.744461 -10.686096,4.709793c-2.356537,0.466003 -2.356537,0.466003 -4.760681,0.941391c-2.47406,0.471573 -2.47406,0.471573 -4.998138,0.952698c-1.615814,0.319977 -3.231628,0.639969 -4.896393,0.969666c-3.164612,0.617615 -6.334167,1.210663 -9.50827,1.777481c-3.375671,0.623093 -6.725006,1.388153 -10.060242,2.200119c-8.924347,0.043854 -15.783142,-3.812485 -23.752533,-7.570724c-15.60025,-7.022415 -31.26651,-13.096375 -47.493683,-18.454697c-1.9245,-0.642303 -3.848969,-1.284607 -5.831757,-1.946396c-18.842987,-6.14772 -38.013885,-10.812164 -57.40271,-14.879944c-2.019287,-0.442215 -2.019287,-0.442215 -4.079376,-0.893333c-20.153748,-4.240028 -40.27832,-5.955643 -60.833282,-5.89608c-3.302032,0.004601 -6.602264,-0.029678 -9.904068,-0.066078c-50.252167,-0.219559 -95.14447,20.396675 -114.886703,68.552071c-2.328979,7.648285 -4.205734,15.324051 -5.789719,23.158844c-0.281723,1.307922 -0.563477,2.615906 -0.853745,3.963455c-1.695374,13.482132 -0.89122,27.350006 -0.593681,40.906784c0.026596,1.428284 0.053185,2.856598 0.080574,4.328125c0.105637,3.843414 0.307495,7.666382 0.552673,11.503113c0.042847,1.718933 0.042847,1.718933 0.086578,3.472595c0.604813,7.112549 1.388367,7.951385 8.360519,10.130951c1.171158,0.160797 2.342316,0.321625 3.54895,0.487305c16.623413,2.392609 28.459656,18.533264 32.240952,33.764709c1.783966,14.654083 -0.531967,28.440155 -9.860596,40.166107c-6.230301,9.256439 -0.357132,18.947784 3.889954,28.134338c0.844879,1.865387 0.844879,1.865387 1.706802,3.768402c5.002365,10.826385 10.693756,21.230682 16.758499,31.496735c0.985474,1.709503 0.985474,1.709503 1.990921,3.453552c0.591721,0.99823 1.183365,1.996429 1.79303,3.024902c2.126083,5.566711 -0.610199,9.021515 -3.704086,13.620514c-7.082489,10.951233 -9.616928,24.430054 -12.574524,36.999847c-6.009247,-6.785553 -10.029251,-14.49881 -14.29335,-22.43512c-0.809647,-1.501312 -1.619293,-3.002533 -2.453476,-4.549347c-6.551331,-12.278412 -12.745605,-24.717804 -18.805603,-37.245117c-0.84407,-1.743622 -1.688095,-3.487183 -2.557739,-5.283661c-12.549782,-26.219513 -12.549782,-26.219513 -12.549782,-31.806641c-1.821037,-0.059692 -3.64209,-0.119415 -5.518318,-0.180939c-20.582573,-2.337433 -34.510101,-18.08493 -39.351929,-37.452179c-1.897095,-18.634857 2.557518,-34.199097 17.369125,-46.317657c0.955307,0 1.910614,0 2.894859,0c-0.192169,-1.069153 -0.384361,-2.138245 -0.582367,-3.239746c-0.255623,-1.468414 -0.511246,-2.936829 -0.774597,-4.449707c-0.251892,-1.427399 -0.503784,-2.854706 -0.76329,-4.325317c-9.948235,-68.766327 6.273415,-142.065155 71.596748,-177.598198c71.181244,-34.381584 155.182404,-17.355385 227.246063,5.789711z" fill="#7658DA"/>
   <path d="m828.031494,100.243683c1.314087,0.00174 2.628296,0.00351 3.982178,0.005295c58.976929,0.213242 113.856445,20.867126 135.242188,80.880997c5.094177,16.743347 7.577881,33.108749 6.128967,50.580795c1.137756,5.619873 4.172363,5.272995 9.430908,6.581268c22.094299,12.752991 29.541443,36.070969 25.369568,60.447067c-5.301025,20.220062 -20.282349,39.204407 -42.060242,41.664398c-8.33844,1.807343 -9.610596,7.406769 -11.624634,15.039673c-0.82196,2.670959 -1.651428,5.33963 -2.487793,8.006073c-0.410461,1.350891 -0.820984,2.701752 -1.243896,4.093506c-14.221558,44.733398 -39.201111,87.915649 -64.659241,127.129761c-1.474121,2.323273 -2.850769,4.707916 -4.206604,7.102142c-1.854492,2.843994 -1.854492,2.843994 -4.74939,2.843994c-0.116333,-0.947845 -0.232788,-1.895691 -0.352661,-2.872253c-0.538452,-4.350769 -1.087952,-8.700073 -1.637512,-13.049469c-0.182861,-1.490784 -0.365784,-2.981598 -0.554138,-4.517548c-0.837219,-6.572357 -1.718445,-13.004669 -3.392395,-19.421539c-2.279236,-8.780182 -0.581726,-14.315094 4.076538,-21.824463c12.212769,-19.986145 22.827148,-40.490814 32.16571,-61.979309c0.76886,-1.763672 1.53772,-3.527344 2.329773,-5.344452c13.726379,-26.110382 13.726379,-26.110382 6.716614,-50.833801c-15.568054,-16.711945 -18.350708,-41.828369 -7.508484,-61.877502c0.524292,-1.022522 1.048523,-2.044952 1.588745,-3.098389c7.179382,-12.752472 18.647217,-22.217453 33.149475,-24.40274c-4.400574,-52.393127 -21.956543,-91.059143 -76.905884,-104.757538c-39.278137,-8.561981 -80.142334,-3.495148 -118.362122,7.896545c-5.374573,1.597656 -10.802795,2.938004 -16.237305,4.316116c-32.47998,8.822388 -62.976868,23.589645 -92.929321,38.66568c-7.274353,3.332733 -10.529907,3.301682 -17.61792,0.053009c-7.735718,-3.429657 -15.490479,-6.126038 -23.588501,-8.565842c-3.188904,-1.294754 -3.188904,-1.294754 -3.188904,-4.189621c2.826294,-1.808212 2.826294,-1.808212 6.773499,-3.827759c1.436646,-0.741653 2.873413,-1.483337 4.353638,-2.247467c1.522522,-0.771515 3.045044,-1.54306 4.613647,-2.337936c1.466492,-0.75473 2.933105,-1.509445 4.444031,-2.287048c4.360657,-2.239029 8.732727,-4.454651 13.106018,-6.668915c1.259888,-0.65004 2.519775,-1.300018 3.817871,-1.969711c7.078735,-3.61972 14.20343,-6.806107 21.613892,-9.68602c3.338135,-1.301453 6.639648,-2.667831 9.939758,-4.062424c37.038391,-15.44751 75.621521,-25.541351 115.160889,-32.046936c1.476257,-0.261917 2.952454,-0.523811 4.473389,-0.793686c14.948425,-2.444519 29.722961,-2.681084 44.829651,-2.643951z" fill="#75B5F2"/>
   <path d="m666.728149,557.935974c13.383606,21.004211 19.166748,51.17926 6.338135,74.056274c-0.97113,1.746338 -0.97113,1.746338 -1.961914,3.528076c-9.314026,15.182068 -23.005737,25.413574 -41.460876,22.525574c-26.230713,-8.692078 -33.913635,-35.052124 -33.82019,-60.35553c0.738098,-34.950928 40.196228,-79.474365 70.904846,-39.754395z" fill="#ACF4FB"/>
   <path d="m403.087219,560.695129c15.973206,22.832825 15.283173,56.604736 0.378815,79.608521c-10.762848,13.979614 -24.896698,22.076416 -42.591675,16.520996c-29.535187,-13.326843 -31.394165,-45.623657 -29.400879,-74.044922c5.695404,-38.647461 46.462341,-51.760559 71.613739,-22.084595z" fill="#AEF4FB"/>
   <path d="m506.612183,358.428497c11.861816,5.930939 7.829285,40.366791 6.422974,51.835999c-1.441589,7.640198 -4.005249,14.693848 -6.875305,21.892334c-0.410583,1.045441 -0.821228,2.090881 -1.244263,3.167999c-4.451172,10.58075 -9.455261,17.186432 -21.462219,17.186432c-6.61676,-2.940796 -9.763672,-6.002747 -10.776581,-13.37738c0.811829,-6.850739 3.812286,-10.60614 8.062653,-15.752075c15.032837,-19.371887 21.524597,-41.038635 25.872742,-64.953308z" fill="#110B47"/>
   <path d="m389.998169,286.532074c3.531586,2.300659 6.924652,4.716461 10.318573,7.214539c19.176514,13.426361 39.859985,19.503265 62.87262,22.706512c0,0.955292 0,1.910614 0,2.894836c-28.952209,8.732452 -68.915558,7.904785 -92.635345,-13.026825c-3.29364,-6.587341 -2.124542,-11.898315 1.537903,-18.00238c6.010773,-5.2435 10.853699,-5.63559 17.90625,-1.786682z" fill="#100947"/>
   <path d="m639.775452,326.585114c1.082581,7.577637 0.22406,15.085968 -7.237122,18.816528c-9.776062,1.017029 -14.629822,-1.297546 -21.892334,-7.41806c-18.717224,-14.652069 -40.189758,-20.791168 -63.505859,-24.425323c0,-0.955322 0,-1.910614 0,-2.894867c29.677734,-6.40033 70.594788,-9.686554 92.635315,15.921722z" fill="#120A49"/>
   <path d="m535.470276,195.77388c4.932068,5.679321 4.275757,9.7995 0.723694,16.193085c-1.902954,2.488434 -3.827393,4.963654 -5.86322,7.344559c-13.025696,15.625137 -17.971619,34.244507 -22.271179,53.718781c-15.130615,-15.130676 -4.867737,-52.430099 3.38678,-69.035492c5.86438,-9.946289 13.191528,-14.213303 24.023926,-8.220932z" fill="#100A45"/>
   <path d="m474.768799,336.717102c-53.510559,37.181335 -53.510559,37.181335 -72.371368,31.843384c-5.511749,-4.946411 -6.721405,-8.623413 -5.789734,-15.921692c4.059692,-8.119354 6.944855,-9.028534 15.548553,-9.131226c1.664307,-0.036407 3.328613,-0.072754 5.043365,-0.11026c3.463959,-0.050079 6.927979,-0.095459 10.39209,-0.135712c13.46759,-0.306061 26.062531,-2.14859 38.763184,-6.778778c4.071594,-1.213165 4.071594,-1.213165 8.41391,0.234283z" fill="#112871"/>
   <path d="m525.428711,348.296509c6.682434,6.068207 11.198853,12.84494 15.921692,20.444916c0.765625,1.228546 1.531189,2.457062 2.319946,3.722809c19.21814,31.238861 19.21814,31.238861 13.149475,45.399231c-4.856812,5.576324 -9.826233,4.789001 -16.916809,4.251831c-5.335754,-4.047913 -6.50061,-6.799469 -6.468201,-13.40567c-0.016785,-1.48938 -0.033569,-2.97879 -0.050903,-4.513306c0.001892,-1.579895 0.003723,-3.15976 0.005676,-4.787537c-0.268494,-15.49707 -2.319153,-28.985382 -6.513428,-43.875153c-0.509399,-2.40683 -1.00415,-4.817261 -1.447449,-7.237122z" fill="#0F266E"/>
   <path d="m612.274353,271.582855c0.264343,7.533325 -1.393555,11.292145 -7.237122,15.921722c-3.900208,0.698273 -3.900208,0.698273 -8.351013,0.678467c-1.635376,0.016998 -3.270752,0.034058 -4.955688,0.051605c-1.72876,-0.002136 -3.457397,-0.004211 -5.238464,-0.006378c-13.651794,0.201202 -25.447937,1.075958 -38.447266,5.439178c-3.7995,1.074249 -3.7995,1.074249 -8.141785,-0.373169c9.456665,-7.607819 19.410461,-13.726379 30.124573,-19.359344c1.17511,-0.620117 2.35022,-1.240295 3.560974,-1.879272c12.937866,-6.682678 27.56189,-13.878479 38.685791,-0.472809z" fill="#112770"/>
   <path d="m480.558472,220.922913c0.744202,3.273331 0.744202,3.273331 0.780273,7.095795c0.031616,1.40007 0.063232,2.80014 0.095764,4.24263c0.00946,1.482635 0.018921,2.965256 0.028625,4.492813c0.073364,3.032623 0.154358,6.065079 0.243103,9.097305c0.041748,1.451843 0.083496,2.903687 0.126526,4.399536c0.317139,7.258224 1.505798,14.251602 3.067993,21.331863c0.274292,1.294922 0.548523,2.589752 0.831177,3.92392c0.659546,3.040558 1.356689,6.072998 2.06366,9.102936c-5.714539,-5.357391 -10.201477,-11.113159 -14.474243,-17.640503c-0.629578,-0.954041 -1.259216,-1.908051 -1.907867,-2.890961c-21.040344,-32.339203 -21.040344,-32.339203 -11.299896,-45.326462c7.246582,-5.11525 14.016357,-3.981674 20.444885,2.171127z" fill="#112871"/>
   <path d="m537.008118,328.032532c19.092468,5.776855 43.137024,19.520966 50.659973,39.080536c-0.148682,7.73056 -2.320984,11.820313 -9.95105,14.474274c-10.214417,0 -14.114624,-11.074982 -18.092834,-19.178406c-5.462341,-10.720093 -11.248474,-20.351776 -20.009583,-28.739349c-2.606506,-2.742218 -2.606506,-2.742218 -2.606506,-5.637054z" fill="#559DD6"/>
   <path d="m490.690491,346.849091c4.624329,9.248627 -15.413757,32.513306 -21.711426,39.080536c-7.206787,6.635681 -14.614655,13.079437 -24.425323,7.960846c-4.163788,-4.89856 -4.194122,-7.487854 -3.075775,-13.75058c5.41864,-5.223267 11.59256,-8.057007 18.364227,-11.21756c11.874023,-5.711212 21.513092,-12.738037 30.848297,-22.073242z" fill="#579FD5"/>
   <path d="m447.199799,257.182098c3.420258,4.92807 5.85376,9.960693 8.390564,15.395874c4.251068,8.895386 8.986969,16.335419 15.605072,23.729889c2.125916,2.776123 2.125916,2.776123 2.125916,7.118408c-45.747528,-24.28006 -45.747528,-24.28006 -43.422821,-44.870239c4.696869,-5.780746 12.007416,-6.932526 17.30127,-1.373932z" fill="#539DD7"/>
   <path d="m568.851563,245.529175c1.37207,5.449722 1.842896,8.642776 -2.769104,12.369568c-4.009827,2.276184 -8.081116,4.292114 -12.247986,6.266052c-12.058838,6.090179 -22.101685,11.829468 -31.300598,21.892334c-2.096924,-6.290649 1.144653,-9.579956 4.432739,-14.836121c0.908203,-1.470581 0.908203,-1.470581 1.834717,-2.970825c7.418701,-11.83252 25.076599,-37.694595 40.050232,-22.721008z" fill="#549ED8"/>
  </g>
 </g>
</svg>