<svg xmlns="http://www.w3.org/2000/svg" viewBox="0 0 2048 1952" fill="none" role="img" aria-label="国光量子"><path fill="#12016B" d="M186.555 771.348c47.473-4.449 65.39 17.872 99.963 46.873a541 541 0 0 0 48.146 35.901c74.012 49.53 159.639 83.507 245.513 105.974a1038 1038 0 0 0 54.029 12.595c14.995 3.066 98.332 16.838 103.509 20.314l-.312 1.653c-10.278 6.582-76.487 20.862-92.163 24.122a1085 1085 0 0 1-40.071 6.48 735 735 0 0 1-380.477-48.346c-46.507-18.726-111.212-43.396-117.775-100.635-6.225-54.291 24.434-98.073 79.638-104.931m1304.175 147.084c8.6-.991 31.88-.572 41.49-.509 98.92.732 197.27 23.737 287.94 62.793 44.06 18.977 94.67 41.354 100.31 95.484 5.44 52.25-26.83 97.56-80.36 102.8-40.11 3.93-56.24-10.72-85.44-35.07-100.48-86.5-219.25-135.41-347.98-163.683-24.31-5.341-48.5-9.547-72.99-13.881-7.16-1.267-41.85-6.182-43.55-10.245 4.63-4.869 9.92-4.662 15.84-6.468 60.19-18.356 122.06-27.75 184.74-31.221m-459.35 331.098c2.84 2.19 3.23 2.38 4.46 6.29 8.66 27.52 15.94 58.14 21.45 86.25 30.36 154.88 9.38 311.84-56.58 454.95-14.839 32.19-32.223 65.35-67.837 78.65-22.414 8.37-50.878 6.3-72.473-3.7-19.741-9.63-33.798-23.25-42.713-43.57a94.8 94.8 0 0 1-7.792-38.86c.282-38.97 19.095-55.98 42.834-83.93 98.556-116.04 146.476-266.7 170.101-414.86 1.73-10.86 4.71-31.28 8.55-41.22m88.13-1180.139c68.47-4.367 112.91 56.022 93.61 120.821-5.23 17.573-33.52 47.742-45.56 62.366a590 590 0 0 0-27.83 36.565c-74.68 107.529-111.26 231.618-133.71 359.08-1.67 8.016-6.744 47.618-11.035 50.932l-1.928-1.129c-2.944-5.212-6.243-19.165-7.932-25.434a797.5 797.5 0 0 1-25.132-132.839 734.2 734.2 0 0 1 55.117-360.03c21.45-51.499 41.67-104.437 104.4-110.332"></path><path fill="#003399" d="M1632.56 622.404c19.06-1.225 36.1.425 53.79 9.332 64.84 31.436 53.02 137.571-16.39 152.965-36.62 8.123-86.07.269-124.84.376a890 890 0 0 0-253.84 36.639c-26.72 7.629-54.03 19.736-78.25 26.392 11.82-11.26 40.91-32.315 55.47-42.598 82.11-57.992 171.1-116.482 263.32-156.475 31.92-13.839 66.39-23.303 100.74-26.631m-892.661-361.989c34.121-4.243 75.928 24.688 83.077 58.472 6.651 31.431 2.562 61.574 1.343 93.275-.696 18.094-.54 36.264-.244 54.288a871.7 871.7 0 0 0 36.722 233.105c7.788 25.834 16.868 50.191 25.974 75.557-8.627-8.272-26.461-33.149-34.388-43.767-67.022-92.826-180.204-257.844-190.485-369.25-2.386-25.856.419-52.093 17.85-72.59 15.951-18.754 35.996-27.028 60.151-29.09m67.587 843.535.991.29.22 1.57c-4.102 5-48.698 37.92-57.935 44.11-101.807 68.22-226.489 158.87-348.727 176.71-32.142 4.69-55.718-2.26-79.827-21.89-26.037-25.41-30.091-62.56-16.142-95.04 25.209-58.69 85.725-47.92 137.439-45.48 15.164.58 30.34.82 45.515.71a869.7 869.7 0 0 0 318.466-60.98m335.224 74.83c.55.35 1.3.81 1.83 1.25 10.58 8.84 37 48.13 46.86 62.06 62.33 88.08 169.56 249.27 174.23 354.86 1.24 27.83-5.48 49.28-24.3 69.9-13.76 12.27-28.38 19.7-46.8 22.08a86.64 86.64 0 0 1-64.06-17.99c-35.62-27.7-30.75-71.74-28.6-112.01.8-14.85 1.34-29.77 1.47-44.64a889 889 0 0 0-13.38-165.79 884 884 0 0 0-26.46-108.38c-3.47-10.95-19.93-54.53-20.79-61.34"></path><path fill="#07B0FC" d="M1214.86 1058.8c9.39-.52 30.38 9.61 39.83 13.66 69.8 29.91 134.81 70.39 193.5 118.73 37.11 30.56 90.63 83.21 96.05 133.23 2.39 22.1-5.46 38.68-19.37 55.15-31.6 27.52-76.15 29.68-102.79-7-8.75-13.05-15.08-27.95-21.8-42.12-29.45-62.04-62.92-122.68-104.44-177.71a888 888 0 0 0-35.14-43.21c-6.51-7.43-43.68-45.42-45.84-50.73m-671.3-508.526c56.382-5.288 68.196 37.412 88.639 80.03 2.659 5.541 5.393 11.275 8.118 16.795a1034 1034 0 0 0 59.811 105.845 791 791 0 0 0 69.904 92.472c5.86 6.659 37.817 39.915 40.646 44.281l-.725 1.05c-8.002 1.278-31.752-10.282-40.259-14.013-48.02-20.223-103.614-52.58-146.675-83.964-52.831-39.899-124.733-94.52-139.404-162.887-8.255-38.468 21.891-74.19 59.945-79.609m382.647 627.256c2.936.81 1.788.01 3.571 2.46-.692 5.72-9.654 26.54-12.202 32.53a799.6 799.6 0 0 1-112.386 187.51c-40.273 50.43-125.312 144.12-193.333 89.05a83 83 0 0 1-2.988-2.87 69.36 69.36 0 0 1-20.281-49.67c.197-47.55 38.474-59.77 74.859-77.02a1200 1200 0 0 0 48.182-24.04c87.137-46.33 145.5-89.03 214.578-157.95m433.443-732.272c3.94-.522 10.73-.769 14.67-.566a67.9 67.9 0 0 1 47.08 23.039c13.31 14.905 17.81 31.76 17.03 51.445-1.8 45.319-46.05 58.361-81.03 75.07a1204 1204 0 0 0-52.16 26.451c-62.25 33.634-112.61 67.454-165.64 114.036-5.33 4.816-38.23 36.938-41.06 37.356l-1.3-1.614c-.22-4.219 5.66-17.84 7.32-22.074 34.77-88.716 152.28-286.959 255.09-303.143"></path></svg>